# xmcd
#
# Track frame offsets:
#	150
#	16118
#	39619
#	60575
#	113436
#	162252
#
# Disc length: 2826 seconds
#
# Revision: 0
# Processed by: cddbd v1.4PL0 Copyright (c) Steve Scherf et al.
# Submitted via: audiograbber 1.81.02
#
DISCID=3c0b0806
DTITLE=Allman Brothers - 6/9/73, RFK Stadium, Washington D.C. - Disc 2
DYEAR=1900
DGENRE=
TTITLE0=Tuning 
TTITLE1=Statesboro Blues
TTITLE2=Trouble No More
TTITLE3=Jessica
TTITLE4=You Don't Love Me 
TTITLE5=Southbound 
EXTD=
EXTT0=
EXTT1=
EXTT2=
EXTT3=
EXTT4=
EXTT5=
PLAYORDER=
